<?xml version="1.0" encoding="utf-8"?>
<!-- Generator: Adobe Illustrator 28.0.0, SVG Export Plug-In . SVG Version: 6.00 Build 0)  -->
<svg version="1.1" id="Layer_1" xmlns="http://www.w3.org/2000/svg" xmlns:xlink="http://www.w3.org/1999/xlink" x="0px" y="0px"
	 viewBox="0 0 999 308" style="enable-background:new 0 0 999 308;" xml:space="preserve">
<style type="text/css">
	.st0{fill:#F2F2F2;stroke:#999999;stroke-width:4;stroke-linecap:round;stroke-linejoin:round;stroke-miterlimit:10;}
	.st1{fill:#E1ECF7;stroke:#7699D4;stroke-width:4;stroke-linecap:round;stroke-linejoin:round;stroke-miterlimit:10;}
	.st2{clip-path:url(#SVGID_00000043447063634328045790000000456660627227151550_);}
	.st3{clip-path:url(#SVGID_00000028292123437764174810000004663951067520806310_);}
	.st4{fill:#7699D4;stroke:#7699D4;stroke-width:3;stroke-linecap:round;stroke-linejoin:round;stroke-miterlimit:10;}
	.st5{fill:#999999;stroke:#999999;stroke-width:3;stroke-linecap:round;stroke-linejoin:round;stroke-miterlimit:10;}
	.st6{clip-path:url(#SVGID_00000014612560268333586490000003269390935093486764_);}
	.st7{fill:none;}
	.st8{fill:#FFFFFF;}
	.st9{font-family:'TimesNewRomanPS-BoldMT';}
	.st10{font-size:17px;}
	.st11{font-family:'TimesNewRomanPSMT';}
	.st12{font-size:21px;}
	.st13{font-family:'TimesNewRomanPS-ItalicMT';}
	.st14{font-size:16px;}
	.st15{fill:none;stroke:#999999;stroke-width:3;stroke-linecap:round;stroke-linejoin:round;stroke-miterlimit:10;}
	.st16{fill:none;stroke:#7699D4;stroke-width:3;stroke-linecap:round;stroke-linejoin:round;stroke-miterlimit:10;}
</style>
<g id="Layer_4">
	<rect x="392" y="46" class="st0" width="199" height="199"/>
	<rect x="621" y="10" class="st1" width="199" height="289"/>
	<g>
		<g>
			<g>
				<defs>
					<rect id="SVGID_1_" x="623.2" y="12" width="194.3" height="165.3"/>
				</defs>
				<clipPath id="SVGID_00000140708939786982854970000014350862437590368422_">
					<use xlink:href="#SVGID_1_"  style="overflow:visible;"/>
				</clipPath>
				
					<g transform="matrix(1 0 0 1 3.051758e-05 0)" style="clip-path:url(#SVGID_00000140708939786982854970000014350862437590368422_);">
					
						<image style="overflow:visible;enable-background:new    ;" width="1399" height="1196" xlink:href="EBBAF2C1.png"  transform="matrix(0.1385 0 0 0.1382 623.5601 11.9852)">
					</image>
				</g>
			</g>
		</g>
	</g>
</g>
<g id="Layer_3">
	<g>
		<g>
			<g>
				<defs>
					<rect id="SVGID_00000001661563011280783130000009338829960634678458_" x="394.3" y="47.9" width="194.3" height="165.4"/>
				</defs>
				<clipPath id="SVGID_00000084508395284718949550000011442808584519365051_">
					<use xlink:href="#SVGID_00000001661563011280783130000009338829960634678458_"  style="overflow:visible;"/>
				</clipPath>
				<g style="clip-path:url(#SVGID_00000084508395284718949550000011442808584519365051_);">
					
						<image style="overflow:visible;enable-background:new    ;" width="1400" height="1195" xlink:href="EBBAF2C3.png"  transform="matrix(0.1386 0 0 0.1383 394.4701 47.904)">
					</image>
				</g>
			</g>
		</g>
	</g>
</g>
<g id="Layer_2_00000122705720140204344630000007521615988397316283_">
	<rect x="623" y="12.1" class="st4" width="70.5" height="31"/>
	<rect x="394.3" y="48.1" class="st5" width="70.5" height="31"/>
</g>
<g id="Layer_1_00000056415925216739038210000008544833530460286901_">
	<g>
		<g>
			<g>
				<defs>
					<rect id="SVGID_00000142170323670993745240000002455983054348864435_" x="167.3" y="47.7" width="194.3" height="165.8"/>
				</defs>
				<clipPath id="SVGID_00000114767154038503730060000011158658092863356836_">
					<use xlink:href="#SVGID_00000142170323670993745240000002455983054348864435_"  style="overflow:visible;"/>
				</clipPath>
				<g style="clip-path:url(#SVGID_00000114767154038503730060000011158658092863356836_);">
					
						<image style="overflow:visible;enable-background:new    ;" width="725" height="619" xlink:href="EBBAF2C6.png"  transform="matrix(0.2679 0 0 0.2678 167.3827 47.6836)">
					</image>
				</g>
			</g>
		</g>
	</g>
	<rect x="405" y="58" class="st7" width="70" height="21"/>
	<text transform="matrix(1 0 0 1 405 69.271)" class="st8 st9 st10">OV-3D</text>
	<rect x="167" y="231.6" class="st7" width="199" height="31.4"/>
	<text transform="matrix(1 0 0 1 167.0128 246.1835)" class="st11 st12">3D Point Cloud Scene</text>
	<rect x="430.9" y="220.8" class="st7" width="138.1" height="31.4"/>
	<text transform="matrix(1 0 0 1 430.9128 235.5044)" class="st11 st12">Class:    </text>
	<text transform="matrix(1 0 0 1 503.2528 235.5044)" class="st13 st12">“Bed”</text>
	<rect x="634.4" y="189.8" class="st7" width="246.6" height="111.2"/>
	<text transform="matrix(1 0 0 1 634.3612 200.952)" class="st11 st14">Affordance:   </text>
	<text transform="matrix(1 0 0 1 723.6512 200.952)" class="st13 st14">“Sleep”</text>
	<text transform="matrix(1 0 0 1 634.3612 228.952)" class="st11 st14">Material:       </text>
	<text transform="matrix(1 0 0 1 721.0012 228.952)" class="st13 st14">“Wood”</text>
	<text transform="matrix(1 0 0 1 634.3612 256.952)" class="st11 st14">Property:        </text>
	<text transform="matrix(1 0 0 1 725.9112 256.952)" class="st13 st14">“Soft”</text>
	<text transform="matrix(1 0 0 1 634.3612 284.952)" class="st11 st14">Type: </text>
	<text transform="matrix(1 0 0 1 675.6812 284.952)" class="st13 st14">“A good place to lie”</text>
	<line class="st15" x1="394" y1="213" x2="589" y2="213"/>
	<line class="st16" x1="623" y1="178" x2="818" y2="178"/>
	<rect x="626" y="22.1" class="st7" width="70" height="21"/>
	<text transform="matrix(1 0 0 1 626.0128 33.3522)" class="st8 st9 st10">GOV-3D</text>
	<line class="st16" x1="622.5" y1="209.5" x2="817.5" y2="209.5"/>
	<line class="st16" x1="622.5" y1="238.5" x2="817.5" y2="238.5"/>
	<line class="st16" x1="622.5" y1="267.5" x2="817.5" y2="267.5"/>
</g>
</svg>
